<?xml version="1.0" encoding="utf-8"?>
<!-- Generator: Adobe Illustrator 16.0.0, SVG Export Plug-In . SVG Version: 6.00 Build 0)  -->
<!DOCTYPE svg PUBLIC "-//W3C//DTD SVG 1.1//EN" "http://www.w3.org/Graphics/SVG/1.1/DTD/svg11.dtd">
<svg version="1.1" id="Layer_2" xmlns="http://www.w3.org/2000/svg" xmlns:xlink="http://www.w3.org/1999/xlink" x="0px" y="0px"
	 width="400px" height="400px" viewBox="0 0 400 400" enable-background="new 0 0 400 400" xml:space="preserve">
<g>
	<path fill="#77797B" d="M254.627,347.409H63.631v-31.808h190.996c35.147,0,63.676-28.497,63.676-63.675v-15.904
		c0-35.146-28.498-63.675-63.676-63.675H93.998l58.129,64.686c4.688,5.21,4.29,13.27-0.95,17.988
		c-5.24,4.688-13.269,4.259-17.988-0.95l-80.1-89.14c-0.644-0.705-0.98-1.532-1.409-2.329c-0.276-0.49-0.644-0.889-0.858-1.379
		c-0.613-1.532-1.011-3.156-1.011-4.78l0,0l0,0c0-1.624,0.368-3.248,1.011-4.78c0.214-0.521,0.583-0.919,0.858-1.41
		c0.459-0.796,0.766-1.624,1.409-2.329l80.131-89.14c4.688-5.209,12.748-5.639,17.987-0.95c5.209,4.688,5.669,12.777,0.95,17.987
		l-58.16,64.687h160.629c52.737,0,95.514,42.747,95.514,95.514v15.903C350.141,304.662,307.395,347.409,254.627,347.409z"/>
</g>
</svg>
