<?xml version="1.0" encoding="utf-8"?>
<!-- Generator: Adobe Illustrator 16.0.0, SVG Export Plug-In . SVG Version: 6.00 Build 0)  -->
<!DOCTYPE svg PUBLIC "-//W3C//DTD SVG 1.1//EN" "http://www.w3.org/Graphics/SVG/1.1/DTD/svg11.dtd">
<svg version="1.1" id="Layer_2" xmlns="http://www.w3.org/2000/svg" xmlns:xlink="http://www.w3.org/1999/xlink" x="0px" y="0px"
	 width="400px" height="400px" viewBox="0 0 400 400" enable-background="new 0 0 400 400" xml:space="preserve">
<g>
	<g>
		<g>
			<path fill="#77797B" d="M263.415,319.71h-68.962c6.427-6.427,124.771-124.771,131.469-131.469
				c13.562-13.562,13.562-35.627,0-49.188l-74.447-74.448c-13.561-13.561-35.625-13.56-49.188,0L55.143,211.75
				c-13.592,13.593-13.595,35.596,0,49.189l74.447,74.445l0,0c6.709,6.708,15.499,10.092,24.311,10.163
				c0.095,0.002,0.188,0.017,0.284,0.017h109.232c7.14,0,12.927-5.789,12.927-12.93C276.343,325.499,270.555,319.71,263.415,319.71z
				 M220.568,82.888c3.479-3.48,9.144-3.482,12.625,0l74.446,74.447c3.48,3.48,3.48,9.143,0,12.625l-64.432,64.433l-87.072-87.073
				L220.568,82.888z M147.871,317.104l-74.447-74.446c-3.489-3.486-3.489-9.136,0-12.623l64.432-64.433l87.071,87.072
				l-64.432,64.431C157.028,320.57,151.356,320.59,147.871,317.104z"/>
			<path fill="#77797B" d="M332.235,319.71h-21.854c-7.14,0-12.927,5.789-12.927,12.926c0,7.14,5.788,12.929,12.927,12.929h21.854
				c7.139,0,12.926-5.789,12.926-12.929C345.161,325.499,339.374,319.71,332.235,319.71z"/>
			<path fill="#77797B" d="M310.154,288.807c0-7.139-5.788-12.928-12.928-12.928h-21.854c-7.139,0-12.926,5.789-12.926,12.928
				s5.787,12.926,12.926,12.926h21.854C304.367,301.732,310.154,295.945,310.154,288.807z"/>
		</g>
	</g>
</g>
</svg>
