<?xml version="1.0" encoding="utf-8"?>
<!-- Generator: Adobe Illustrator 16.0.0, SVG Export Plug-In . SVG Version: 6.00 Build 0)  -->
<!DOCTYPE svg PUBLIC "-//W3C//DTD SVG 1.1//EN" "http://www.w3.org/Graphics/SVG/1.1/DTD/svg11.dtd">
<svg version="1.1" id="Layer_1" xmlns="http://www.w3.org/2000/svg" xmlns:xlink="http://www.w3.org/1999/xlink" x="0px" y="0px"
	 width="307.012px" height="179px" viewBox="0 0 307.012 179" enable-background="new 0 0 307.012 179" xml:space="preserve">
<path fill="#FFFFFF" d="M198.183,38.854c1.086-0.068,12.138-0.499,23.868,7.553c5.105,3.505,13.163,7.668,22.616,7.668h0.177
	l0.244-0.002l0.243,0.002h0.177c9.456,0,17.515-4.163,22.622-7.668c0.189-0.129,0.378-0.25,0.566-0.376V29.97
	c-5.361,3.58-13.56,7.641-23.188,7.641h-0.188l-0.231-0.001l-0.233,0.001h-0.188c-9.967,0.001-18.408-4.352-23.749-8.018
	c-11.485-7.886-22.553-7.213-22.663-7.204l-0.071,0.005l-0.072-0.005c-0.109-0.006-11.17-0.682-22.656,7.204
	c-0.183,0.125-0.379,0.252-0.567,0.378v16.062C186.401,38.376,197.112,38.79,198.183,38.854"/>
<path fill="#FFFFFF" d="M151.7,35.61c9.457,0,17.513-4.162,22.623-7.668c11.726-8.05,22.771-7.617,23.86-7.554
	c1.065-0.065,11.782-0.479,23.299,7.179V11.504c-0.188-0.125-0.382-0.252-0.564-0.378c-11.484-7.886-22.553-7.211-22.663-7.203
	l-0.071,0.004l-0.072-0.004c-0.109-0.005-11.17-0.683-22.656,7.203c-5.344,3.668-13.788,8.019-23.755,8.019h-0.187l-0.233-0.002
	v16.465l0.241,0.002H151.7z"/>
<path fill="#FFFFFF" d="M151.7,72.511c9.457,0,17.513-4.162,22.623-7.666c11.726-8.051,22.771-7.619,23.86-7.555
	c1.085-0.066,12.137-0.5,23.867,7.555c5.105,3.504,13.163,7.666,22.616,7.666h0.177h0.244h0.243h0.177
	c9.456,0,17.515-4.162,22.622-7.666c0.189-0.131,0.378-0.252,0.566-0.377V48.436c-5.396,3.6-13.672,7.665-23.377,7.639h-0.231
	h-0.233h-0.188c-9.966,0.002-18.408-4.352-23.749-8.018c-11.484-7.886-22.553-7.211-22.663-7.203l-0.071,0.005l-0.072-0.005
	c-0.109-0.006-11.17-0.683-22.656,7.203c-5.344,3.666-13.788,8.018-23.755,8.018h-0.187h-0.233v16.436h0.241H151.7z"/>
<path fill="#FFFFFF" d="M133.417,110.293h8.737v46.535h-8.737V110.293z M133.417,94.669h8.737v10.248h-8.737V94.669z"/>
<path fill="#FFFFFF" d="M171.872,94.67h8.736v10.248h-8.736V94.67z M171.872,156.829v-38.555h-11.844v38.555h-8.736v-38.555h-4.115
	v-7.979h4.115v-2.269c0-4.621,1.596-8.315,5.545-10.836c3.947-2.52,6.803-2.52,11.34-2.52v7.979c-3.611,0-8.148,0.84-8.148,5.377
	v2.269h20.58v46.534H171.872z"/>
<path fill="#FFFFFF" d="M244.001,117.014c-9.24,0-15.959,7.559-15.959,16.631c0,8.737,6.973,16.381,15.875,16.381
	c9.072,0,16.213-7.392,16.213-16.381C260.13,124.321,253.493,117.014,244.001,117.014 M259.962,156.829v-7.223h-0.168
	c-3.275,5.627-9.408,8.399-15.793,8.399c-13.943,0-24.695-10.248-24.695-24.276c0-14.111,10.584-24.695,24.695-24.695
	c6.217,0,12.348,2.521,15.793,7.812h0.168v-6.552h8.736v46.534H259.962z"/>
<polygon fill="#FFFFFF" points="213.184,156.829 224.104,156.829 204.531,132.218 221.417,110.294 211.084,110.294 198.048,127.962 
	194.367,127.962 194.367,94.67 185.631,94.67 185.631,127.962 185.63,127.962 185.63,136.698 185.631,136.698 185.631,156.829 
	194.367,156.829 194.367,136.698 197.61,136.698 "/>
<path fill="#FFFFFF" d="M122.092,120.961c-4.115,2.101-5.124,7.476-5.124,11.677v24.19h-8.735v-46.535h8.147v5.46h0.168
	c2.856-4.031,7.14-5.292,11.845-5.46v8.988C126.461,119.282,123.771,120.038,122.092,120.961"/>
<path fill="#FFFFFF" d="M287.561,99.935v2.944h1.775c0.527-0.021,2.027,0,2.027-1.541c0-1.384-1.326-1.403-1.852-1.403H287.561z
	 M289.727,98.92c1.111,0,3.021,0.371,3.021,2.342c0,0.779-0.329,1.578-1.5,2.047c0.877,0.292,1.267,0.837,1.345,1.949
	c0.098,1.58,0.098,1.735,0.254,2.127h-1.347c-0.155-0.254-0.194-1.112-0.252-1.972c-0.077-0.799-0.194-1.561-1.989-1.561h-1.697
	v3.532h-1.383V98.92H289.727z M289.374,96.756c-3.606,0-6.317,2.926-6.317,6.416c0,3.567,2.809,6.416,6.338,6.416
	c3.471,0,6.299-2.81,6.299-6.416c0-3.472-2.691-6.416-6.299-6.416H289.374z M289.434,95.703c4.154,0,7.391,3.394,7.391,7.47
	c0,4.174-3.334,7.469-7.43,7.469c-4.154,0-7.469-3.276-7.469-7.469c0-4.037,3.196-7.47,7.487-7.47H289.434z"/>
<path fill="#FFFFFF" d="M32.246,117.014c-8.988,0-15.54,7.727-15.54,16.464c0,8.987,6.552,16.548,15.792,16.548
	c9.156,0,15.708-7.477,15.708-16.38C48.206,124.825,41.234,117.014,32.246,117.014 M33.422,158.004
	c-6.216,0-13.02-2.352-16.38-7.895h-0.168v22.26H8.139v-62.076h7.979v7.141h0.168c3.865-5.544,9.912-8.4,16.548-8.4
	c14.364,0,24.107,11.088,24.107,25.116C56.941,147.336,46.777,158.004,33.422,158.004"/>
<path fill="#FFFFFF" d="M95.229,156.829v-5.039h-0.168c-2.688,4.535-8.735,6.216-13.691,6.216c-4.873,0-9.577-1.429-13.272-4.619
	c-5.125-4.452-6.133-11.508-6.133-17.894v-25.198h8.737v25.198c0,8.232,2.435,14.533,11.591,14.533c8.905,0,12.18-6.72,12.18-14.785
	v-24.946h8.736v46.534H95.229z"/>
</svg>
