<?xml version="1.0" encoding="utf-8"?>
<!-- Generator: Adobe Illustrator 16.0.0, SVG Export Plug-In . SVG Version: 6.00 Build 0)  -->
<!DOCTYPE svg PUBLIC "-//W3C//DTD SVG 1.1//EN" "http://www.w3.org/Graphics/SVG/1.1/DTD/svg11.dtd">
<svg version="1.1" id="Layer_2" xmlns="http://www.w3.org/2000/svg" xmlns:xlink="http://www.w3.org/1999/xlink" x="0px" y="0px"
	 width="400px" height="400px" viewBox="0 0 400 400" enable-background="new 0 0 400 400" xml:space="preserve">
<path fill="#77797B" d="M368.183,347.305L256.188,235.287c16.426-21.127,26.213-47.668,26.213-76.496
	C282.4,89.874,226.514,34,157.598,34C88.682,34.011,32.795,89.888,32.818,158.779c-0.023,68.915,55.864,124.803,124.802,124.78
	c28.816,0,55.354-9.779,76.481-26.192L346.1,369.364L368.183,347.305z M157.598,260.165
	c-55.886,0.022-101.385-45.476-101.385-101.386c0-55.898,45.499-101.385,101.385-101.374
	c55.886-0.013,101.384,45.475,101.384,101.396C258.982,214.68,213.484,260.165,157.598,260.165z"/>
</svg>
